<svg width="1613" height="2016" version="1.1" xmlns="http://www.w3.org/2000/svg" desc="Created with imagetracer.js version 1.2.6" ><path fill="rgb(255,255,255)" stroke="rgb(255,255,255)" stroke-width="1" opacity="0.9607843137254902" d="M 592 707 L 615.5 707 L 616.5 709 L 625.5 709 L 627.5 711 L 635 711 L 635 713 L 642 713 L 642 715 L 648 715 L 648 717 L 653 717 L 653 718.5 L 659.5 722 L 663 722 Q 661.6 725.7 667.5 724 L 667.5 726 L 672 726 L 672 729 L 676 729 L 676 731 L 680 731 L 680 733 L 684 733 L 684 735 L 688 735 Q 686.3 739.1 690.5 738 Q 691.6 740.8 695 740 L 695 742 Q 699.1 740.7 698 744 L 701.5 744 L 701.5 746 L 708 749 L 708 751 L 712 751 L 712 753 L 715 753 L 715 755 Q 718.8 753.5 718 756.5 L 721 758 L 721 760 L 724 760 L 724 762 L 727 762 Q 725.9 765.3 730 764 L 730 767 L 733 767 L 733 769 L 736 769 Q 734.9 772.3 739 771 L 739 773 Q 741.7 771.9 741 774.5 L 744 776 L 744 778 L 747 778 Q 745.9 781.3 750 780 L 750 782 Q 752.7 780.9 752 783.5 L 755 785 Q 753.9 787.7 756.5 787 L 760 789 L 760 791 L 763 791 Q 761.9 794.3 766 793 L 766 796 L 768 796 L 770 800 L 773 800 Q 771.8 803 775.5 802 L 776.5 805 Q 779.1 804.3 778 807 L 781 807 L 783 811 L 786 811 L 786 814 L 788 814 L 790 818 L 793 818 Q 792 821 795 820 L 795 823 L 796.5 823 L 800 825 L 800 827 L 802 827 L 804 831 L 806.5 831 L 807.5 834 Q 810.1 833.3 809 836 L 811 836 L 811 838 L 813.5 838 L 813.5 840 L 816 840 L 816 843 L 818 843 L 818 845 L 820 845 L 822 849 L 825 849 Q 824 852 827 851 L 827 854 L 829 854 L 831 858 L 833.5 858 L 834.5 861 L 836 860.5 Q 833.8 861.8 836.5 863 L 838 863 L 838 865 L 840 865 L 840 867 L 842 867 L 842 869 Q 844.7 867.9 844 870.5 L 849 874 L 849 876 L 853 878 L 853 881 L 855 881 L 857 885 L 860 885 L 860 887 L 862 887 L 862 890 Q 864.7 888.9 864 891.5 L 865 894 L 867 894 L 867 896 L 871 898 L 871 901 L 873 901 L 875 905 L 878 905 Q 877 908 880 907 L 880 910 L 882 910 L 882 912 Q 884.7 910.9 884 913.5 L 885 916 L 887 916 L 887 919 L 889 919 L 889 921 L 891 921 L 891 923 L 893 923 L 893 925 Q 895.7 923.9 895 926.5 L 898 932 L 900 932 L 900 934 Q 902.7 932.9 902 935.5 Q 905.8 936.8 905 941 L 907 941 L 907 943 Q 909.7 941.9 909 944.5 L 913 952 Q 916.8 950.5 916 953.5 L 916.5 956 L 918 956 L 918 959 L 920 959 L 920 961 Q 922.7 959.9 922 962.5 L 923 966 L 927 968 L 927 972 Q 929.7 970.9 929 973.5 Q 932.7 974.7 932 979 L 934 979 L 934 981 Q 936.7 979.9 936 982.5 L 938 986.5 L 940 989.5 L 941 992 L 943 992 Q 941.7 996.1 945 995 L 945 999 L 947 999 L 947 1001 Q 949.7 999.9 949 1002.5 L 949 1004.5 L 954 1009.5 L 958 1019 L 961 1020.5 L 961 1023.5 Q 964.3 1022.7 963 1028 L 967 1030 L 967 1035 L 968.5 1035 L 970 1039 L 972 1039 L 972 1042 L 974 1042 L 974 1046 Q 976.7 1044.9 976 1047.5 L 977 1050 L 979 1050.5 Q 976.8 1051.7 979.5 1053 L 981 1053 L 981 1057 L 983 1057 L 983 1062 Q 985.7 1060.9 985 1063.5 L 987 1068 L 990 1069.5 L 990 1073 L 992 1073 L 992 1077 L 994 1077 L 994 1082 Q 996.7 1080.9 996 1083.5 L 997 1086 L 999 1086 Q 997.7 1090.1 1001 1089 L 1001 1093 L 1003 1093 Q 1001.3 1098.2 1005 1097 L 1005 1102 L 1008 1102 L 1008 1106 L 1010 1106 L 1010 1111 L 1012 1111 L 1012 1115 Q 1015 1113.8 1014 1117.5 L 1015.5 1120 L 1017 1119.5 L 1016 1121.5 L 1017.5 1124 L 1019 1123.5 L 1019 1128 L 1021 1128 Q 1019.7 1132.1 1023 1131 L 1023 1134.5 L 1025 1140 L 1028 1141.5 L 1035.5 1160 L 1037 1159.5 L 1037 1163.5 Q 1040 1164.8 1039 1169 L 1041 1169 L 1041 1173 L 1043 1173 L 1043 1178 L 1046 1178 L 1046 1181.5 Q 1049.5 1183.2 1048 1189 L 1050 1189 L 1050 1194 L 1052 1194 L 1052 1198 L 1053.5 1198 L 1055 1200.5 L 1055 1202.5 Q 1054.3 1205.1 1057 1204 L 1057 1209 L 1059 1209 L 1059 1214 L 1061 1214 L 1061 1220 L 1062.5 1220 L 1064 1222.5 L 1063 1225 L 1066 1225 L 1066 1231.5 L 1068 1232 L 1068 1238 L 1070 1238.5 L 1070 1243.5 L 1072 1245.5 L 1073.5 1252 L 1075 1251.5 Q 1073.8 1259.4 1077 1258.5 L 1077 1265.5 L 1079 1267.5 Q 1077.5 1273 1080 1274.5 L 1080 1304.5 L 1079 1307 Q 1075.9 1306.3 1076.5 1309 L 1064 1309 Q 1065.3 1305.7 1060.5 1307 L 1054.5 1303 L 1052 1303 Q 1053.3 1299.7 1048.5 1301 L 1048.5 1299 Q 1045.2 1300.1 1046 1297.5 L 1043 1296 L 1043 1294 L 1040 1294 Q 1041.1 1290.7 1037 1292 Q 1038 1289 1035 1290 L 1035 1287 L 1033.5 1287 L 1032 1283 L 1028 1281 L 1028 1278 Q 1025.3 1279.1 1026 1276.5 L 1024 1272 Q 1019.5 1273.8 1021 1268.5 L 1019 1265 Q 1016.3 1266.1 1017 1263.5 L 1016 1261 L 1014 1260.5 Q 1016.2 1259.3 1013.5 1258 L 1012 1258 L 1012 1254 L 1008 1252 L 1008 1248.5 L 1005 1247.5 L 1006 1245 L 1003 1245 L 1003 1240 Q 1000.3 1241.1 1001 1238.5 Q 998.3 1237.4 999 1234 Q 996.3 1235.1 997 1232.5 L 995.5 1229 L 994 1229.5 Q 995 1225.8 992 1227 L 992 1223 L 990 1223 Q 991.3 1218.9 988 1220 L 988 1216 L 986 1216 Q 987.1 1213.3 984.5 1214 Q 982 1212.8 983 1209 Q 980.3 1210.1 981 1207.5 L 979 1202 L 976 1200.5 L 976 1198 L 972 1196 L 972 1191 L 970 1191 L 970 1189 Q 967.3 1190.1 968 1187.5 L 967.5 1185 L 965 1183.5 L 965 1181 L 963 1181 L 963 1178 Q 960.3 1179.1 961 1176.5 L 959 1172.5 Q 959.8 1170.3 957.5 1171 L 956 1167 L 954 1167 Q 955.3 1162.9 952 1164 L 952 1160 L 950 1160 L 950 1158 Q 947.3 1159.1 948 1156.5 L 947 1153 L 943 1151 L 943 1147 L 941 1147 Q 942.5 1143.2 939.5 1144 L 938 1140 L 934 1138 L 934 1133 L 932 1133 L 932 1131 Q 929.3 1132.1 930 1129.5 L 928.5 1126 L 927 1126.5 L 927 1124 Q 924.3 1125.1 925 1122.5 L 921 1115 L 918 1113.5 L 918 1111 Q 915.3 1112.1 916 1109.5 L 912 1102 L 910 1102 L 910 1100 Q 907.3 1101.1 908 1098.5 L 907 1095 L 905 1095 L 905 1093 Q 902.3 1094.1 903 1091.5 L 902 1089 L 900 1088.5 Q 902.3 1087.2 899.5 1086 Q 896.9 1086.7 898 1084 L 896 1084 L 896 1080.5 L 894 1077 L 892 1077 L 892 1075 Q 889.3 1076.1 890 1073.5 L 889 1071 L 887 1071 L 887 1068 L 885 1068 L 885 1066 Q 882.3 1067.1 883 1064.5 L 882 1062 L 880 1062 L 880 1059 L 878 1059 L 878 1057 L 876 1057 L 876 1055 Q 873.3 1056.1 874 1053.5 L 873 1051 L 871 1051 L 871 1048 L 869 1048 L 869 1046 L 865 1044 L 865 1041.5 L 862 1037 L 860 1037 L 860 1035 L 856 1033 L 856 1030 L 854 1030 L 854 1028 L 852 1028 L 852 1026 L 850 1026 L 850 1024 Q 847.3 1025.1 848 1022.5 L 843.5 1017 Q 840.9 1017.7 842 1015 L 840 1015 L 840 1012 L 838 1012 L 838 1010 L 836 1010 L 834 1006 L 831.5 1006 L 831.5 1004 L 829 1002.5 Q 829.7 999.9 827 1001 L 827 999 L 825 999 L 825 997 L 823 997 L 823 995 L 820 995 L 820 992 L 818 992 L 816 988 L 813 988 Q 814.3 985 810.5 986 L 810.5 984 L 805 981 L 805 979 Q 802 980 803 977 L 800 977 L 800 975.5 L 797 974 L 797 972 L 794 972 L 794 970 L 791 970 Q 792.3 967 788.5 968 L 788.5 966 Q 784.1 967.5 785 964.5 L 782 963 L 782 961 L 778 961 L 778 959 Q 773.9 960.3 775 957 L 771 957 L 771 954 L 767 954 L 767 952 Q 761.8 953.7 763 950 L 758.5 950 L 758.5 948 L 753 947.5 Q 755.3 946.3 752.5 945 Q 747.5 946 746.5 943 L 741 943 L 741 941 L 732.5 941 L 731.5 939 L 704 939 L 703.5 941 L 696.5 941 Q 695 944.3 690 943 Q 691.3 946.3 686.5 945 L 685 948 L 681 948 L 681 950 L 678 950 Q 679.3 953 675.5 952 L 672 954 L 672 957 L 669 957 L 669 959 L 667 959 Q 668.1 961.7 665.5 961 L 662 966 L 660 966.5 L 660.5 968 L 658 968 L 658 970 L 656 970 L 656 972 Q 653.3 970.9 654 973.5 L 652 977 L 650 977.5 L 650 979.5 Q 650.8 981.8 648.5 981 Q 644.9 983.1 645 988 Q 642.3 986.9 643 989.5 Q 640 990.8 641 995 L 639 995 L 639 999 Q 635.3 997.5 636 1000.5 L 637 1003 L 634 1004.5 L 634 1007.5 Q 630.8 1006.7 632 1012 L 630 1012 L 630 1017 L 628 1017 L 628 1021 L 626.5 1021 Q 624 1022.2 625 1026 Q 621 1024.6 623 1031.5 Q 620 1032.8 621 1037 L 619 1037 L 619 1043.5 L 617 1044 L 617 1045.5 L 617 1047.5 L 615.5 1050 L 614 1050.5 L 614 1057 L 612 1057.5 L 612 1064 L 610 1064.5 L 610 1069.5 L 608 1071.5 L 607.5 1078 L 606 1077.5 L 605 1086 L 603 1086.5 L 603 1094.5 L 601 1095.5 L 601 1103.5 L 599 1104.5 L 599 1113 L 596 1113.5 L 596 1121.5 Q 592.2 1124.8 594 1133 L 592 1133.5 L 592 1143.5 L 590 1144.5 L 590 1154.5 L 588 1155 L 588 1157.5 L 587 1158.5 L 587 1167 L 585 1167 L 585 1172.5 Q 582 1171.8 583 1176 L 579.5 1176 L 579.5 1178 L 577 1177.5 L 577.5 1176 L 574 1176 L 574 1173 Q 571 1174.3 572 1170.5 L 568.5 1164 L 567 1163.5 L 567 1158 L 565 1157.5 L 565 1151 L 563 1150.5 L 563 1144.5 L 561 1141.5 Q 562.1 1135.4 559.5 1133 L 558 1133.5 L 558 1124.5 L 556 1123.5 L 556 1113.5 L 554 1112.5 L 554 1102.5 L 552 1100.5 L 552 1088 Q 549 1089.3 550 1085.5 Q 547.3 1083.7 549 1077.5 L 550 1075.5 L 547 1074 L 547 1059.5 L 545 1058.5 L 545 1044.5 L 543 1041.5 L 543 1026.5 L 541 1023.5 L 541 1006.5 L 539.5 1003 L 538 1003.5 L 538 981.5 L 536 980.5 L 536 952.5 L 534 951.5 L 534 913.5 L 533 912.5 L 533 831.5 L 534 830.5 L 534 803.5 L 536 801.5 L 536 785 L 538 784.5 L 538 772.5 L 541 771 L 541 762.5 L 543 761.5 L 543 753.5 L 545 753 L 545 747 L 547 747 L 547 742 Q 549.7 743.1 549 740.5 L 552 733 L 554 733 L 554 729 L 555.5 729 L 556.5 726 L 559 726 L 559 724 L 561 724 L 561 722 L 563 722 Q 561.9 719.3 564.5 720 L 566 717 L 570 716.5 L 569.5 715 Q 574.5 716 573.5 713 L 578 713 L 578.5 711 L 584 711 L 584.5 709 L 592 709 L 592 707 Z " /><path fill="rgb(255,255,255)" stroke="rgb(255,255,255)" stroke-width="1" opacity="0.9607843137254902" d="M 728.5 1004 L 747.5 1004 L 748.5 1006 L 755 1006 L 755 1008 L 760 1008 L 760 1010 L 763.5 1010 Q 762.7 1013.3 768 1012 L 768 1015 L 771 1015 L 771 1017 L 774 1017 L 774 1019 L 777 1019 Q 775.8 1022 779.5 1021 L 780.5 1024 Q 783.1 1023.3 782 1026 L 784 1026 L 784 1028 L 787 1028 Q 786 1031 789 1030 L 789 1032.5 L 791 1032.5 L 791 1035 L 793 1035 L 793 1037 L 795 1037 L 795 1039 Q 797.7 1037.9 797 1040.5 Q 800.8 1041.8 800 1046 L 802 1046 L 802 1048 Q 804.7 1046.9 804 1049.5 L 809.5 1057 L 811 1057 L 811 1062 L 813 1062 L 813 1066 Q 815.7 1064.9 815 1067.5 L 816 1070 L 818 1070 Q 816.3 1075.2 820 1074 L 820 1079 L 822 1079 L 822 1083.5 Q 825 1082.5 824 1087.5 L 825 1090 L 827 1090 Q 825.5 1096.3 829 1095.5 L 829 1103.5 L 831 1104.5 L 831 1118.5 Q 833.8 1119.3 833 1123.5 L 831 1126.5 L 831 1142 L 829 1142 L 829 1148.5 L 827 1149 L 827 1155 L 824 1155 L 824 1160 L 822 1160 L 822 1164 L 820 1164 L 820 1167 Q 817.3 1165.9 818 1168.5 L 817 1171 L 813 1173 L 813 1176 L 811 1176 L 809 1180 L 806 1180 Q 807 1183 804 1182 L 804 1185 L 801.5 1185 L 801.5 1187 L 798 1187 L 798 1189 L 795 1189 Q 796.3 1192 792.5 1191 L 787 1194 L 787 1196 Q 780.7 1194.5 781.5 1198 L 776 1198 L 775.5 1200 L 767.5 1200 L 765.5 1202 L 738.5 1202 L 736.5 1200 L 728 1200 L 728 1198 L 722 1198 L 722 1196 L 717 1196 Q 718.1 1193.3 715.5 1194 Q 713.6 1190.4 709 1191 L 709 1189 Q 704.9 1190.3 706 1187 L 702 1187 L 702 1185 Q 699.3 1186.1 700 1183.5 L 697 1182 L 697 1180 L 695 1180 L 695 1178 L 693 1178 L 693 1176 Q 690.3 1177.1 691 1174.5 L 688 1173 L 686 1167 Q 683 1168.3 684 1164.5 L 682.5 1162 L 681 1162.5 L 679 1158.5 L 679 1154 L 677 1154 L 677 1149 L 675 1149 L 675 1140.5 L 673.5 1140 L 672 1138.5 L 672 1098.5 L 675 1097 L 675 1084.5 L 677 1083.5 L 677 1075.5 L 679 1074.5 L 679 1066.5 Q 682.5 1067.5 681 1060.5 L 684 1059 L 684 1053 L 686 1053 L 686 1048 L 688 1048 L 688 1044 L 690 1044 L 690 1039 Q 692.7 1040.1 692 1037.5 L 693 1035 L 695 1035 L 695 1030 L 699 1028 L 699 1025.5 L 702 1024 L 702 1021 L 704 1021 L 704 1019 L 706 1019 Q 704.9 1016.3 707.5 1017 L 711 1015 Q 709.3 1010.9 713.5 1012 L 713.5 1010 L 716.5 1010 Q 715.5 1007 720.5 1008 L 728.5 1004 Z " /><path fill="rgb(0,0,0)" stroke="rgb(0,0,0)" stroke-width="1" opacity="0" d="M 0 0 L 1613 0 L 1613 2016 L 0 2016 L 0 0 Z M 592 707 L 592 709 L 585 709 L 584 711 L 579 711 L 578 713 L 574 713 Q 575 716 570 715 L 570 717 L 566 717 L 565 720 Q 562 719 563 722 L 561 722 L 561 724 L 559 724 L 559 726 L 557 726 L 556 729 L 554 729 L 554 733 L 552 733 L 549 741 Q 550 743 547 742 L 547 747 L 545 747 L 545 753 L 543 754 L 543 762 L 541 763 L 541 771 L 538 773 L 538 785 L 536 785 L 536 802 L 534 804 L 534 831 L 533 832 L 533 913 L 534 914 L 534 952 L 536 953 L 536 981 L 538 982 L 538 1004 L 540 1003 L 541 1007 L 541 1024 L 543 1027 L 543 1042 L 545 1045 L 545 1059 L 547 1060 L 547 1074 L 550 1076 L 549 1078 Q 547 1084 550 1086 Q 549 1089 552 1088 L 552 1101 L 554 1103 L 554 1113 L 556 1114 L 556 1124 L 558 1125 L 558 1134 L 560 1133 Q 562 1135 561 1142 L 563 1145 L 563 1151 L 565 1151 L 565 1158 L 567 1158 L 567 1164 L 569 1164 L 572 1171 Q 571 1174 574 1173 L 574 1176 L 578 1176 L 577 1178 L 580 1178 L 580 1176 L 583 1176 Q 582 1172 585 1173 L 585 1167 L 587 1167 L 587 1159 L 588 1158 L 588 1155 L 590 1155 L 590 1145 L 592 1144 L 592 1134 L 594 1133 Q 592 1125 596 1122 L 596 1114 L 599 1113 L 599 1105 L 601 1104 L 601 1096 L 603 1095 L 603 1087 L 605 1086 L 606 1078 L 608 1078 L 608 1072 L 610 1070 L 610 1065 L 612 1064 L 612 1058 L 614 1057 L 614 1051 L 616 1050 L 617 1048 L 617 1046 L 617 1044 L 619 1044 L 619 1037 L 621 1037 Q 620 1033 623 1032 Q 621 1025 625 1026 Q 624 1022 627 1021 L 628 1021 L 628 1017 L 630 1017 L 630 1012 L 632 1012 Q 631 1007 634 1008 L 634 1005 L 637 1003 L 636 1001 Q 635 998 639 999 L 639 995 L 641 995 Q 640 991 643 990 Q 642 987 645 988 Q 645 983 649 981 Q 651 982 650 980 L 650 978 L 652 977 L 654 974 Q 653 971 656 972 L 656 970 L 658 970 L 658 968 L 661 968 L 660 967 L 662 966 L 666 961 Q 668 962 667 959 L 669 959 L 669 957 L 672 957 L 672 954 L 676 952 Q 679 953 678 950 L 681 950 L 681 948 L 685 948 L 687 945 Q 691 946 690 943 Q 695 944 697 941 L 704 941 L 704 939 L 732 939 L 733 941 L 741 941 L 741 943 L 747 943 Q 748 946 753 945 Q 755 946 753 948 L 759 948 L 759 950 L 763 950 Q 762 954 767 952 L 767 954 L 771 954 L 771 957 L 775 957 Q 774 960 778 959 L 778 961 L 782 961 L 782 963 L 785 965 Q 784 967 789 966 L 789 968 Q 792 967 791 970 L 794 970 L 794 972 L 797 972 L 797 974 L 800 976 L 800 977 L 803 977 Q 802 980 805 979 L 805 981 L 811 984 L 811 986 Q 814 985 813 988 L 816 988 L 818 992 L 820 992 L 820 995 L 823 995 L 823 997 L 825 997 L 825 999 L 827 999 L 827 1001 Q 830 1000 829 1003 L 832 1004 L 832 1006 L 834 1006 L 836 1010 L 838 1010 L 838 1012 L 840 1012 L 840 1015 L 842 1015 Q 841 1018 844 1017 L 848 1023 Q 847 1025 850 1024 L 850 1026 L 852 1026 L 852 1028 L 854 1028 L 854 1030 L 856 1030 L 856 1033 L 860 1035 L 860 1037 L 862 1037 L 865 1042 L 865 1044 L 869 1046 L 869 1048 L 871 1048 L 871 1051 L 873 1051 L 874 1054 Q 873 1056 876 1055 L 876 1057 L 878 1057 L 878 1059 L 880 1059 L 880 1062 L 882 1062 L 883 1065 Q 882 1067 885 1066 L 885 1068 L 887 1068 L 887 1071 L 889 1071 L 890 1074 Q 889 1076 892 1075 L 892 1077 L 894 1077 L 896 1081 L 896 1084 L 898 1084 Q 897 1087 900 1086 Q 902 1087 900 1089 L 902 1089 L 903 1092 Q 902 1094 905 1093 L 905 1095 L 907 1095 L 908 1099 Q 907 1101 910 1100 L 910 1102 L 912 1102 L 916 1110 Q 915 1112 918 1111 L 918 1114 L 921 1115 L 925 1123 Q 924 1125 927 1124 L 927 1127 L 929 1126 L 930 1130 Q 929 1132 932 1131 L 932 1133 L 934 1133 L 934 1138 L 938 1140 L 940 1144 Q 943 1143 941 1147 L 943 1147 L 943 1151 L 947 1153 L 948 1157 Q 947 1159 950 1158 L 950 1160 L 952 1160 L 952 1164 Q 955 1163 954 1167 L 956 1167 L 958 1171 Q 960 1170 959 1173 L 961 1177 Q 960 1179 963 1178 L 963 1181 L 965 1181 L 965 1184 L 968 1185 L 968 1188 Q 967 1190 970 1189 L 970 1191 L 972 1191 L 972 1196 L 976 1198 L 976 1201 L 979 1202 L 981 1208 Q 980 1210 983 1209 Q 982 1213 985 1214 Q 987 1213 986 1216 L 988 1216 L 988 1220 Q 991 1219 990 1223 L 992 1223 L 992 1227 Q 995 1226 994 1230 L 996 1229 L 997 1233 Q 996 1235 999 1234 Q 998 1237 1001 1239 Q 1000 1241 1003 1240 L 1003 1245 L 1006 1245 L 1008 1249 L 1008 1252 L 1012 1254 L 1012 1258 L 1014 1258 Q 1016 1259 1014 1261 L 1016 1261 L 1017 1264 Q 1016 1266 1019 1265 L 1021 1269 Q 1020 1274 1024 1272 L 1026 1277 Q 1025 1279 1028 1278 L 1028 1281 L 1032 1283 L 1034 1287 L 1035 1287 L 1035 1290 Q 1038 1289 1037 1292 Q 1041 1291 1040 1294 L 1043 1294 L 1043 1296 L 1046 1298 Q 1045 1300 1049 1299 L 1049 1301 Q 1053 1300 1052 1303 L 1055 1303 L 1061 1307 Q 1065 1306 1064 1309 L 1077 1309 Q 1076 1306 1079 1307 L 1080 1305 L 1080 1275 Q 1078 1273 1079 1268 L 1077 1266 L 1077 1259 Q 1074 1259 1075 1252 L 1074 1252 L 1072 1246 L 1070 1244 L 1070 1239 L 1068 1238 L 1068 1232 L 1066 1232 L 1066 1225 L 1063 1225 L 1064 1223 L 1063 1220 L 1061 1220 L 1061 1214 L 1059 1214 L 1059 1209 L 1057 1209 L 1057 1204 Q 1054 1205 1055 1203 L 1055 1201 L 1054 1198 L 1052 1198 L 1052 1194 L 1050 1194 L 1050 1189 L 1048 1189 Q 1050 1183 1046 1182 L 1046 1178 L 1043 1178 L 1043 1173 L 1041 1173 L 1041 1169 L 1039 1169 Q 1040 1165 1037 1164 L 1037 1160 L 1036 1160 L 1028 1142 L 1025 1140 L 1023 1135 L 1023 1131 Q 1020 1132 1021 1128 L 1019 1128 L 1019 1124 L 1018 1124 L 1014 1118 Q 1015 1114 1012 1115 L 1012 1111 L 1010 1111 L 1010 1106 L 1008 1106 L 1008 1102 L 1005 1102 L 1005 1097 Q 1001 1098 1003 1093 L 1001 1093 L 1001 1089 Q 998 1090 999 1086 L 997 1086 L 996 1084 Q 997 1081 994 1082 L 994 1077 L 992 1077 L 992 1073 L 990 1073 L 990 1070 L 987 1068 L 985 1064 Q 986 1061 983 1062 L 983 1057 L 981 1057 L 981 1053 L 980 1053 Q 977 1052 979 1051 L 977 1050 L 976 1048 Q 977 1045 974 1046 L 974 1042 L 972 1042 L 972 1039 L 970 1039 L 969 1035 L 967 1035 L 967 1030 L 963 1028 Q 964 1023 961 1024 L 961 1021 L 958 1019 L 954 1010 L 949 1005 L 949 1003 Q 950 1000 947 1001 L 947 999 L 945 999 L 945 995 Q 942 996 943 992 L 941 992 L 940 990 L 938 987 L 936 983 Q 937 980 934 981 L 934 979 L 932 979 Q 933 975 929 974 Q 930 971 927 972 L 927 968 L 923 966 L 922 963 Q 923 960 920 961 L 920 959 L 918 959 L 918 956 L 917 956 L 916 954 Q 917 951 913 952 L 909 945 Q 910 942 907 943 L 907 941 L 905 941 Q 906 937 902 936 Q 903 933 900 934 L 900 932 L 898 932 L 895 927 Q 896 924 893 925 L 893 923 L 891 923 L 891 921 L 889 921 L 889 919 L 887 919 L 887 916 L 885 916 L 884 914 Q 885 911 882 912 L 882 910 L 880 910 L 880 907 Q 877 908 878 905 L 875 905 L 873 901 L 871 901 L 871 898 L 867 896 L 867 894 L 865 894 L 864 892 Q 865 889 862 890 L 862 887 L 860 887 L 860 885 L 857 885 L 855 881 L 853 881 L 853 878 L 849 876 L 849 874 L 844 871 Q 845 868 842 869 L 842 867 L 840 867 L 840 865 L 838 865 L 838 863 L 837 863 Q 832 861 834 858 L 831 858 L 829 854 L 827 854 L 827 851 Q 824 852 825 849 L 822 849 L 820 845 L 818 845 L 818 843 L 816 843 L 816 840 L 814 840 L 814 838 L 811 838 L 811 836 L 809 836 Q 810 833 808 834 L 807 831 L 804 831 L 802 827 L 800 827 L 800 825 L 797 823 L 795 823 L 795 820 Q 792 821 793 818 L 790 818 L 788 814 L 786 814 L 786 811 L 783 811 L 781 807 L 778 807 Q 779 804 777 805 L 776 802 Q 772 803 773 800 L 770 800 L 768 796 L 766 796 L 766 793 Q 762 794 763 791 L 760 791 L 760 789 L 757 787 Q 754 788 755 785 L 752 784 Q 753 781 750 782 L 750 780 Q 746 781 747 778 L 744 778 L 744 776 L 741 775 Q 742 772 739 773 L 739 771 Q 735 772 736 769 L 733 769 L 733 767 L 730 767 L 730 764 Q 726 765 727 762 L 724 762 L 724 760 L 721 760 L 721 758 L 718 757 Q 719 753 715 755 L 715 753 L 712 753 L 712 751 L 708 751 L 708 749 L 702 746 L 702 744 L 698 744 Q 699 741 695 742 L 695 740 Q 692 741 691 738 Q 686 739 688 735 L 684 735 L 684 733 L 680 733 L 680 731 L 676 731 L 676 729 L 672 729 L 672 726 L 668 726 L 668 724 Q 662 726 663 722 L 660 722 L 653 719 L 653 717 L 648 717 L 648 715 L 642 715 L 642 713 L 635 713 L 635 711 L 628 711 L 626 709 L 617 709 L 616 707 L 592 707 Z M 729 1004 L 721 1008 Q 716 1007 717 1010 L 714 1010 L 714 1012 Q 709 1011 711 1015 L 708 1017 Q 705 1016 706 1019 L 704 1019 L 704 1021 L 702 1021 L 702 1024 L 699 1026 L 699 1028 L 695 1030 L 695 1035 L 693 1035 L 692 1038 Q 693 1040 690 1039 L 690 1044 L 688 1044 L 688 1048 L 686 1048 L 686 1053 L 684 1053 L 684 1059 L 681 1061 Q 683 1067 679 1067 L 679 1075 L 677 1076 L 677 1084 L 675 1085 L 675 1097 L 672 1099 L 672 1139 L 674 1140 L 675 1141 L 675 1149 L 677 1149 L 677 1154 L 679 1154 L 679 1159 L 681 1163 L 683 1162 L 684 1165 Q 683 1168 686 1167 L 688 1173 L 691 1175 Q 690 1177 693 1176 L 693 1178 L 695 1178 L 695 1180 L 697 1180 L 697 1182 L 700 1184 Q 699 1186 702 1185 L 702 1187 L 706 1187 Q 705 1190 709 1189 L 709 1191 Q 714 1190 716 1194 Q 718 1193 717 1196 L 722 1196 L 722 1198 L 728 1198 L 728 1200 L 737 1200 L 739 1202 L 766 1202 L 768 1200 L 776 1200 L 776 1198 L 782 1198 Q 781 1195 787 1196 L 787 1194 L 793 1191 Q 796 1192 795 1189 L 798 1189 L 798 1187 L 802 1187 L 802 1185 L 804 1185 L 804 1182 Q 807 1183 806 1180 L 809 1180 L 811 1176 L 813 1176 L 813 1173 L 817 1171 L 818 1169 Q 817 1166 820 1167 L 820 1164 L 822 1164 L 822 1160 L 824 1160 L 824 1155 L 827 1155 L 827 1149 L 829 1149 L 829 1142 L 831 1142 L 831 1127 L 833 1124 Q 834 1119 831 1119 L 831 1105 L 829 1104 L 829 1096 Q 826 1096 827 1090 L 825 1090 L 824 1088 Q 825 1083 822 1084 L 822 1079 L 820 1079 L 820 1074 Q 816 1075 818 1070 L 816 1070 L 815 1068 Q 816 1065 813 1066 L 813 1062 L 811 1062 L 811 1057 L 810 1057 L 804 1050 Q 805 1047 802 1048 L 802 1046 L 800 1046 Q 801 1042 797 1041 Q 798 1038 795 1039 L 795 1037 L 793 1037 L 793 1035 L 791 1035 L 791 1033 L 789 1033 L 789 1030 Q 786 1031 787 1028 L 784 1028 L 784 1026 L 782 1026 Q 783 1023 781 1024 L 780 1021 Q 776 1022 777 1019 L 774 1019 L 774 1017 L 771 1017 L 771 1015 L 768 1015 L 768 1012 Q 763 1013 764 1010 L 760 1010 L 760 1008 L 755 1008 L 755 1006 L 749 1006 L 748 1004 L 729 1004 Z " /></svg>